<svg version="1.1" id="Layer_1" xmlns="http://www.w3.org/2000/svg" xmlns:xlink="http://www.w3.org/1999/xlink" x="0px" y="0px"
	 width="100%" viewBox="0 0 1695 519" enable-background="new 0 0 1695 519" xml:space="preserve">
<path fill="#FFFFFF" opacity="1.000000" stroke="none" 
	d="
M1321.000000,520.000000 
	C880.716248,520.000000 440.932495,520.000000 1.074362,520.000000 
	C1.074362,347.069092 1.074362,174.138168 1.074362,1.103611 
	C566.000000,1.103611 1131.000000,1.103611 1695.978394,1.103611 
	C1695.978394,174.067780 1695.978394,347.033905 1695.978394,520.000000 
	C1571.137817,520.000000 1446.318970,520.000000 1321.000000,520.000000 
M1521.267456,363.040283 
	C1519.473145,366.346375 1517.678833,369.652466 1515.144287,373.013519 
	C1514.263672,373.346619 1513.383179,373.679718 1512.489746,374.017700 
	C1510.123779,366.454987 1507.679443,363.996460 1503.545410,364.544708 
	C1503.545410,369.684509 1503.545410,374.774933 1503.545410,379.865356 
	C1503.814819,379.870819 1504.084106,379.876251 1504.353516,379.881714 
	C1504.930786,376.866119 1505.508057,373.850525 1506.081055,370.857971 
	C1511.945801,372.747131 1508.033203,382.976776 1516.592651,380.753235 
	C1517.792603,378.443634 1518.916870,376.279694 1520.875610,374.057281 
	C1521.452637,376.250610 1522.029785,378.443939 1522.645386,380.783783 
	C1523.535522,380.783783 1524.621338,380.783783 1525.816162,380.783783 
	C1525.816162,377.828369 1525.816162,375.069092 1525.959473,371.442261 
	C1525.790161,369.177704 1525.620728,366.913147 1525.903076,364.279999 
	C1525.603516,363.908875 1525.303833,363.537750 1524.259766,363.024750 
	C1523.506470,363.072052 1522.753296,363.119354 1521.267456,363.040283 
M564.500000,473.000000 
	C686.490906,473.000000 808.481873,473.000031 930.472778,473.000000 
	C931.639343,473.000000 932.949402,473.339935 933.939819,472.922180 
	C935.544617,472.245270 937.638855,471.416870 938.313782,470.052521 
	C944.303955,457.942963 950.050293,445.712219 955.802002,433.485870 
	C956.584290,431.823059 956.998962,429.987305 957.725647,427.805908 
	C671.595581,427.805908 386.006165,427.805908 100.283371,427.805908 
	C100.283371,316.117981 100.283371,204.731979 100.283371,93.000000 
	C102.697937,93.000000 104.833130,93.000000 106.968315,93.000000 
	C441.109558,93.000000 775.250854,93.000000 1109.392090,92.999931 
	C1110.725342,92.999931 1112.158325,93.307472 1113.365234,92.916626 
	C1114.727905,92.475342 1116.488525,91.698975 1117.041626,90.564133 
	C1122.530029,79.301170 1127.796875,67.930359 1133.144043,56.598366 
	C1134.429565,53.873623 1135.779907,51.179459 1137.196167,48.275024 
	C776.169067,48.275024 415.765900,48.275024 55.308060,48.275024 
	C55.308060,189.934692 55.308060,331.319122 55.308060,473.000000 
	C224.910629,473.000000 394.205322,473.000000 564.500000,473.000000 
M1272.500000,428.000000 
	C1188.336426,428.000000 1104.172729,428.025269 1020.009216,427.910370 
	C1016.534058,427.905640 1014.802307,428.966766 1013.381287,432.053345 
	C1008.738159,442.138245 1003.760620,452.068604 999.008057,462.104034 
	C997.431824,465.432343 996.146545,468.898407 994.593750,472.624237 
	C1210.442627,472.624237 1425.628052,472.624237 1640.753296,472.624237 
	C1640.753296,330.980469 1640.753296,189.712616 1640.753296,48.000248 
	C1639.387817,48.000248 1638.264526,48.000248 1637.141235,48.000248 
	C1491.146240,48.000179 1345.151245,48.010628 1199.156250,47.925564 
	C1196.198975,47.923843 1194.902588,48.929882 1193.717773,51.502712 
	C1189.278076,61.143085 1184.515259,70.634003 1179.983521,80.232933 
	C1178.094971,84.233345 1176.482056,88.364021 1174.423096,93.186844 
	C1315.896973,93.186844 1456.305908,93.186844 1596.623047,93.186844 
	C1596.623047,141.707672 1596.623047,189.762695 1596.623047,238.000000 
	C1594.588745,238.000000 1592.930908,238.000000 1591.272949,238.000000 
	C1564.940552,238.000000 1538.607910,237.966278 1512.276001,238.076965 
	C1510.545776,238.084229 1507.824341,238.701126 1507.245605,239.868347 
	C1500.867676,252.730515 1494.808105,265.751007 1488.712036,278.751892 
	C1488.119385,280.015900 1487.858643,281.435516 1487.321167,283.181519 
	C1524.007812,283.181519 1560.285522,283.181519 1596.699463,283.181519 
	C1596.699463,331.553925 1596.699463,379.608521 1596.699463,428.000000 
	C1488.766235,428.000000 1381.133179,428.000000 1272.500000,428.000000 
M1075.324219,385.999969 
	C1086.448242,384.335663 1097.715698,383.317261 1108.668457,380.882294 
	C1137.987061,374.364380 1162.525146,359.752258 1181.429077,336.096436 
	C1197.395386,316.116699 1204.714478,292.888031 1205.747437,267.819489 
	C1206.230103,256.104401 1204.956909,244.105530 1202.843018,232.534210 
	C1196.254272,196.465683 1175.352539,170.571991 1143.702393,152.990768 
	C1128.047852,144.294922 1111.178223,139.436722 1093.416382,136.803192 
	C1075.082275,134.084793 1056.774170,134.186111 1038.579834,136.227554 
	C1018.910461,138.434433 1000.187256,144.581757 982.923340,154.568115 
	C963.797119,165.631790 948.592041,180.631348 937.996887,200.103470 
	C922.881165,227.883698 920.815491,257.730072 926.304871,287.991486 
	C930.934021,313.510712 943.511414,335.135651 963.595337,352.231384 
	C980.315979,366.464111 999.301636,375.763794 1020.485474,381.045502 
	C1038.211060,385.464996 1056.218628,386.338074 1075.324219,385.999969 
M1401.163330,142.062607 
	C1395.981201,141.375076 1390.801025,140.107178 1385.616821,140.090469 
	C1337.965332,139.936844 1290.313232,140.000000 1242.661255,140.000000 
	C1240.887939,140.000000 1239.114624,140.000000 1237.299438,140.000000 
	C1237.299438,220.604080 1237.299438,300.645294 1237.299438,380.662048 
	C1255.656494,380.662048 1273.712036,380.662048 1292.254150,380.662048 
	C1292.254150,350.270996 1292.254150,320.215668 1292.254150,290.000275 
	C1305.399536,290.000275 1318.055176,289.941650 1330.708374,290.089050 
	C1332.003540,290.104126 1333.678101,291.037537 1334.511597,292.077820 
	C1344.630005,304.705963 1354.583618,317.465729 1364.659668,330.128082 
	C1376.678955,345.232513 1389.007080,360.099152 1400.690308,375.457611 
	C1404.025757,379.842346 1407.388672,381.196472 1412.616821,381.110565 
	C1430.273315,380.820404 1447.937378,381.004791 1465.598633,380.990753 
	C1467.000854,380.989655 1468.403076,380.858246 1470.670288,380.743652 
	C1445.529785,349.530273 1420.944092,319.005890 1396.297119,288.405243 
	C1397.244751,287.921570 1398.046753,287.208862 1398.915894,287.114899 
	C1409.347168,285.987091 1418.705078,281.712372 1427.599487,276.640106 
	C1439.054443,270.107605 1448.338745,261.042877 1454.812622,249.454453 
	C1463.059570,234.692505 1464.375244,218.853607 1462.112305,202.312958 
	C1460.376587,189.626038 1455.405884,178.501175 1447.286011,168.916626 
	C1435.356079,154.834778 1419.662109,146.794708 1401.163330,142.062607 
M597.525879,337.023376 
	C598.025818,338.393616 598.438904,339.803284 599.039429,341.127930 
	C604.410645,352.976105 609.991821,364.733765 615.098572,376.694183 
	C616.578125,380.159485 618.312866,381.174103 621.971375,381.097778 
	C634.298462,380.840759 646.634094,381.000000 658.966492,381.000000 
	C664.569702,381.000000 670.172852,381.000000 676.642761,381.000000 
	C673.542786,374.234253 670.822632,368.210785 668.031433,362.220490 
	C655.662170,335.675293 643.294128,309.129547 630.883423,282.603729 
	C621.299133,262.118835 611.671814,241.653931 602.027100,221.197372 
	C593.141418,202.350647 584.168640,183.544937 575.313904,164.683716 
	C572.000122,157.625275 568.793701,150.510544 565.779175,143.320511 
	C564.600098,140.508392 562.805786,139.934052 560.013184,139.946762 
	C538.681946,140.043839 517.349792,140.054733 496.018799,139.931335 
	C493.329254,139.915787 492.021576,140.675339 490.899597,143.167511 
	C484.689453,156.961441 478.292023,170.671478 471.903412,184.384491 
	C465.101105,198.985565 458.236542,213.557663 451.400208,228.142868 
	C439.039764,254.513550 426.688416,280.888489 414.317291,307.254150 
	C405.536896,325.967224 396.723572,344.664856 387.939270,363.376099 
	C385.267670,369.066833 382.643799,374.779968 379.758179,381.000000 
	C398.466583,381.000000 416.595551,380.904449 434.721802,381.086426 
	C438.059937,381.119934 439.726196,380.043121 441.049408,377.056061 
	C447.238373,363.084747 453.794128,349.273956 459.839691,335.242432 
	C461.391083,331.641693 463.427429,330.924530 466.951416,330.933563 
	C507.614655,331.037689 548.278748,331.093170 588.941040,330.869904 
	C593.495300,330.844910 596.033936,332.054321 597.525879,337.023376 
M189.934677,216.730408 
	C190.331619,217.962112 190.596741,219.256241 191.145782,220.415939 
	C197.065536,232.919891 203.035889,245.399887 208.980942,257.891876 
	C219.334534,279.647308 229.687119,301.403198 240.026779,323.165253 
	C248.688217,341.395020 257.284363,359.656219 266.073242,377.824249 
	C266.741730,379.206085 268.707214,380.850189 270.085663,380.864685 
	C289.078461,381.064484 308.074707,381.065521 327.067596,380.871033 
	C328.545715,380.855896 330.669952,379.350433 331.362457,377.970032 
	C335.077148,370.565308 338.383728,362.957306 341.921844,355.462250 
	C354.706421,328.379883 367.514008,301.308380 380.338898,274.245056 
	C389.189758,255.567810 398.063690,236.901428 406.963043,218.247238 
	C418.741516,193.558105 430.556488,168.886398 442.347992,144.203476 
	C442.941986,142.960098 443.462128,141.681427 444.200836,140.000000 
	C427.072205,140.000000 410.574677,140.332458 394.102112,139.835861 
	C387.541351,139.638062 384.101227,141.053421 381.396179,147.703140 
	C374.726471,164.099091 366.760529,179.964584 359.440369,196.099869 
	C348.565186,220.071350 337.788818,244.087708 326.987671,268.092743 
	C321.188629,280.980865 315.479797,293.909882 309.624298,306.772186 
	C306.535645,313.556763 303.219635,320.237823 299.666290,327.677429 
	C298.493683,325.568878 297.636108,324.242188 296.983734,322.821259 
	C287.964844,303.177368 279.009766,283.504089 269.964539,263.872375 
	C263.499359,249.840302 256.833527,235.900330 250.414673,221.847351 
	C238.530380,195.828751 226.730118,169.771561 214.989716,143.687759 
	C213.725296,140.878601 212.060379,139.897629 208.955185,139.925995 
	C191.961166,140.081329 174.964996,139.994186 157.969574,140.011978 
	C156.708984,140.013306 155.448547,140.184418 153.321060,140.340012 
	C165.574234,165.943756 177.565369,190.999954 189.934677,216.730408 
M757.000000,238.500000 
	C757.000000,205.750229 757.000000,173.000443 757.000000,140.367859 
	C737.950195,140.367859 719.560547,140.367859 701.388306,140.367859 
	C701.388306,220.779297 701.388306,300.822449 701.388306,380.765015 
	C772.037170,380.765015 842.297424,380.765015 912.725342,380.765015 
	C912.725342,364.473633 912.725342,348.418091 912.725342,331.878296 
	C860.736023,331.878296 809.019043,331.878296 757.000000,331.878296 
	C757.000000,300.762573 757.000000,270.131287 757.000000,238.500000 
M1488.000000,377.287415 
	C1487.844604,379.926819 1488.106201,382.086090 1492.120605,380.299652 
	C1492.120605,376.062897 1492.120605,371.653290 1492.120605,367.300842 
	C1498.935669,366.754974 1498.935669,366.754974 1498.278442,363.191681 
	C1492.677490,363.191681 1487.072388,363.191681 1481.481689,363.191681 
	C1481.283936,366.565369 1481.283936,366.565369 1488.000000,367.549744 
	C1488.000000,370.440399 1488.000000,373.395996 1488.000000,377.287415 
z"/>
<path fill="#00AAA1" opacity="1.000000" stroke="none" 
	d="
M564.000000,473.000000 
	C394.205322,473.000000 224.910629,473.000000 55.308060,473.000000 
	C55.308060,331.319122 55.308060,189.934692 55.308060,48.275024 
	C415.765900,48.275024 776.169067,48.275024 1137.196167,48.275024 
	C1135.779907,51.179459 1134.429565,53.873623 1133.144043,56.598366 
	C1127.796875,67.930359 1122.530029,79.301170 1117.041626,90.564133 
	C1116.488525,91.698975 1114.727905,92.475342 1113.365234,92.916626 
	C1112.158325,93.307472 1110.725342,92.999931 1109.392090,92.999931 
	C775.250854,93.000000 441.109558,93.000000 106.968315,93.000000 
	C104.833130,93.000000 102.697937,93.000000 100.283371,93.000000 
	C100.283371,204.731979 100.283371,316.117981 100.283371,427.805908 
	C386.006165,427.805908 671.595581,427.805908 957.725647,427.805908 
	C956.998962,429.987305 956.584290,431.823059 955.802002,433.485870 
	C950.050293,445.712219 944.303955,457.942963 938.313782,470.052521 
	C937.638855,471.416870 935.544617,472.245270 933.939819,472.922180 
	C932.949402,473.339935 931.639343,473.000000 930.472778,473.000000 
	C808.481873,473.000031 686.490906,473.000000 564.000000,473.000000 
z"/>
<path fill="#63666A" opacity="1.000000" stroke="none" 
	d="
M1273.000000,428.000000 
	C1381.133179,428.000000 1488.766235,428.000000 1596.699463,428.000000 
	C1596.699463,379.608521 1596.699463,331.553925 1596.699463,283.181519 
	C1560.285522,283.181519 1524.007812,283.181519 1487.321167,283.181519 
	C1487.858643,281.435516 1488.119385,280.015900 1488.712036,278.751892 
	C1494.808105,265.751007 1500.867676,252.730515 1507.245605,239.868347 
	C1507.824341,238.701126 1510.545776,238.084229 1512.276001,238.076965 
	C1538.607910,237.966278 1564.940552,238.000000 1591.272949,238.000000 
	C1592.930908,238.000000 1594.588745,238.000000 1596.623047,238.000000 
	C1596.623047,189.762695 1596.623047,141.707672 1596.623047,93.186844 
	C1456.305908,93.186844 1315.896973,93.186844 1174.423096,93.186844 
	C1176.482056,88.364021 1178.094971,84.233345 1179.983521,80.232933 
	C1184.515259,70.634003 1189.278076,61.143085 1193.717773,51.502712 
	C1194.902588,48.929882 1196.198975,47.923843 1199.156250,47.925564 
	C1345.151245,48.010628 1491.146240,48.000179 1637.141235,48.000248 
	C1638.264526,48.000248 1639.387817,48.000248 1640.753296,48.000248 
	C1640.753296,189.712616 1640.753296,330.980469 1640.753296,472.624237 
	C1425.628052,472.624237 1210.442627,472.624237 994.593750,472.624237 
	C996.146545,468.898407 997.431824,465.432343 999.008057,462.104034 
	C1003.760620,452.068604 1008.738159,442.138245 1013.381287,432.053345 
	C1014.802307,428.966766 1016.534058,427.905640 1020.009216,427.910370 
	C1104.172729,428.025269 1188.336426,428.000000 1273.000000,428.000000 
z"/>
<path fill="#00AAA1" opacity="1.000000" stroke="none" 
	d="
M1074.841553,386.000000 
	C1056.218628,386.338074 1038.211060,385.464996 1020.485474,381.045502 
	C999.301636,375.763794 980.315979,366.464111 963.595337,352.231384 
	C943.511414,335.135651 930.934021,313.510712 926.304871,287.991486 
	C920.815491,257.730072 922.881165,227.883698 937.996887,200.103470 
	C948.592041,180.631348 963.797119,165.631790 982.923340,154.568115 
	C1000.187256,144.581757 1018.910461,138.434433 1038.579834,136.227554 
	C1056.774170,134.186111 1075.082275,134.084793 1093.416382,136.803192 
	C1111.178223,139.436722 1128.047852,144.294922 1143.702393,152.990768 
	C1175.352539,170.571991 1196.254272,196.465683 1202.843018,232.534210 
	C1204.956909,244.105530 1206.230103,256.104401 1205.747437,267.819489 
	C1204.714478,292.888031 1197.395386,316.116699 1181.429077,336.096436 
	C1162.525146,359.752258 1137.987061,374.364380 1108.668457,380.882294 
	C1097.715698,383.317261 1086.448242,384.335663 1074.841553,386.000000 
M1030.749634,189.065704 
	C1029.998779,189.377548 1029.262207,189.730820 1028.494995,189.995255 
	C1010.245911,196.285080 996.011108,207.633224 987.654785,225.049667 
	C979.429138,242.194016 977.745117,260.489136 982.026001,279.122162 
	C986.937073,300.498444 998.848145,316.456146 1018.709839,326.344879 
	C1035.026978,334.468842 1052.182739,336.897888 1070.282471,336.183563 
	C1085.941895,335.565582 1100.680298,332.364990 1114.353149,324.857574 
	C1127.082031,317.868439 1136.778564,307.512878 1142.650757,294.390289 
	C1149.792358,278.430817 1151.396851,261.631836 1148.141479,244.166977 
	C1143.886719,221.339203 1131.302002,204.923538 1111.275391,194.203873 
	C1100.309082,188.334030 1088.185303,186.088074 1075.693115,184.753113 
	C1060.530518,183.132797 1046.037964,185.123734 1030.749634,189.065704 
z"/>
<path fill="#00AAA1" opacity="1.000000" stroke="none" 
	d="
M1401.548584,142.249054 
	C1419.662109,146.794708 1435.356079,154.834778 1447.286011,168.916626 
	C1455.405884,178.501175 1460.376587,189.626038 1462.112305,202.312958 
	C1464.375244,218.853607 1463.059570,234.692505 1454.812622,249.454453 
	C1448.338745,261.042877 1439.054443,270.107605 1427.599487,276.640106 
	C1418.705078,281.712372 1409.347168,285.987091 1398.915894,287.114899 
	C1398.046753,287.208862 1397.244751,287.921570 1396.297119,288.405243 
	C1420.944092,319.005890 1445.529785,349.530273 1470.670288,380.743652 
	C1468.403076,380.858246 1467.000854,380.989655 1465.598633,380.990753 
	C1447.937378,381.004791 1430.273315,380.820404 1412.616821,381.110565 
	C1407.388672,381.196472 1404.025757,379.842346 1400.690308,375.457611 
	C1389.007080,360.099152 1376.678955,345.232513 1364.659668,330.128082 
	C1354.583618,317.465729 1344.630005,304.705963 1334.511597,292.077820 
	C1333.678101,291.037537 1332.003540,290.104126 1330.708374,290.089050 
	C1318.055176,289.941650 1305.399536,290.000275 1292.254150,290.000275 
	C1292.254150,320.215668 1292.254150,350.270996 1292.254150,380.662048 
	C1273.712036,380.662048 1255.656494,380.662048 1237.299438,380.662048 
	C1237.299438,300.645294 1237.299438,220.604080 1237.299438,140.000000 
	C1239.114624,140.000000 1240.887939,140.000000 1242.661255,140.000000 
	C1290.313232,140.000000 1337.965332,139.936844 1385.616821,140.090469 
	C1390.801025,140.107178 1395.981201,141.375076 1401.548584,142.249054 
M1310.500488,183.000000 
	C1304.406128,183.000000 1298.311768,183.000000 1292.373047,183.000000 
	C1292.373047,204.396179 1292.373047,225.117661 1292.373047,246.000000 
	C1318.229004,246.000000 1343.716675,246.259598 1369.192261,245.820694 
	C1375.703003,245.708496 1382.418091,244.083435 1388.614746,241.931168 
	C1401.016968,237.623657 1407.469971,227.086899 1406.934082,212.725281 
	C1406.479126,200.534332 1399.234375,190.877228 1387.454956,187.213150 
	C1379.618652,184.775635 1371.191772,183.466568 1362.975952,183.180588 
	C1345.836060,182.583923 1328.661011,183.000000 1310.500488,183.000000 
z"/>
<path fill="#00AAA1" opacity="1.000000" stroke="none" 
	d="
M597.295044,336.701599 
	C596.033936,332.054321 593.495300,330.844910 588.941040,330.869904 
	C548.278748,331.093170 507.614655,331.037689 466.951416,330.933563 
	C463.427429,330.924530 461.391083,331.641693 459.839691,335.242432 
	C453.794128,349.273956 447.238373,363.084747 441.049408,377.056061 
	C439.726196,380.043121 438.059937,381.119934 434.721802,381.086426 
	C416.595551,380.904449 398.466583,381.000000 379.758179,381.000000 
	C382.643799,374.779968 385.267670,369.066833 387.939270,363.376099 
	C396.723572,344.664856 405.536896,325.967224 414.317291,307.254150 
	C426.688416,280.888489 439.039764,254.513550 451.400208,228.142868 
	C458.236542,213.557663 465.101105,198.985565 471.903412,184.384491 
	C478.292023,170.671478 484.689453,156.961441 490.899597,143.167511 
	C492.021576,140.675339 493.329254,139.915787 496.018799,139.931335 
	C517.349792,140.054733 538.681946,140.043839 560.013184,139.946762 
	C562.805786,139.934052 564.600098,140.508392 565.779175,143.320511 
	C568.793701,150.510544 572.000122,157.625275 575.313904,164.683716 
	C584.168640,183.544937 593.141418,202.350647 602.027100,221.197372 
	C611.671814,241.653931 621.299133,262.118835 630.883423,282.603729 
	C643.294128,309.129547 655.662170,335.675293 668.031433,362.220490 
	C670.822632,368.210785 673.542786,374.234253 676.642761,381.000000 
	C670.172852,381.000000 664.569702,381.000000 658.966492,381.000000 
	C646.634094,381.000000 634.298462,380.840759 621.971375,381.097778 
	C618.312866,381.174103 616.578125,380.159485 615.098572,376.694183 
	C609.991821,364.733765 604.410645,352.976105 599.039429,341.127930 
	C598.438904,339.803284 598.025818,338.393616 597.295044,336.701599 
M508.446350,227.053711 
	C504.232941,236.558777 500.037994,246.072083 495.800964,255.566620 
	C491.515930,265.168640 487.189301,274.752106 482.730560,284.678345 
	C513.131714,284.678345 542.967407,284.678345 573.706970,284.678345 
	C558.478149,250.944595 543.524109,217.819534 528.207458,183.891251 
	C521.392151,198.929077 515.157959,212.684814 508.446350,227.053711 
z"/>
<path fill="#00AAA1" opacity="1.000000" stroke="none" 
	d="
M189.745590,216.393280 
	C177.565369,190.999954 165.574234,165.943756 153.321060,140.340012 
	C155.448547,140.184418 156.708984,140.013306 157.969574,140.011978 
	C174.964996,139.994186 191.961166,140.081329 208.955185,139.925995 
	C212.060379,139.897629 213.725296,140.878601 214.989716,143.687759 
	C226.730118,169.771561 238.530380,195.828751 250.414673,221.847351 
	C256.833527,235.900330 263.499359,249.840302 269.964539,263.872375 
	C279.009766,283.504089 287.964844,303.177368 296.983734,322.821259 
	C297.636108,324.242188 298.493683,325.568878 299.666290,327.677429 
	C303.219635,320.237823 306.535645,313.556763 309.624298,306.772186 
	C315.479797,293.909882 321.188629,280.980865 326.987671,268.092743 
	C337.788818,244.087708 348.565186,220.071350 359.440369,196.099869 
	C366.760529,179.964584 374.726471,164.099091 381.396179,147.703140 
	C384.101227,141.053421 387.541351,139.638062 394.102112,139.835861 
	C410.574677,140.332458 427.072205,140.000000 444.200836,140.000000 
	C443.462128,141.681427 442.941986,142.960098 442.347992,144.203476 
	C430.556488,168.886398 418.741516,193.558105 406.963043,218.247238 
	C398.063690,236.901428 389.189758,255.567810 380.338898,274.245056 
	C367.514008,301.308380 354.706421,328.379883 341.921844,355.462250 
	C338.383728,362.957306 335.077148,370.565308 331.362457,377.970032 
	C330.669952,379.350433 328.545715,380.855896 327.067596,380.871033 
	C308.074707,381.065521 289.078461,381.064484 270.085663,380.864685 
	C268.707214,380.850189 266.741730,379.206085 266.073242,377.824249 
	C257.284363,359.656219 248.688217,341.395020 240.026779,323.165253 
	C229.687119,301.403198 219.334534,279.647308 208.980942,257.891876 
	C203.035889,245.399887 197.065536,232.919891 191.145782,220.415939 
	C190.596741,219.256241 190.331619,217.962112 189.745590,216.393280 
z"/>
<path fill="#00AAA1" opacity="1.000000" stroke="none" 
	d="
M757.000000,239.000000 
	C757.000000,270.131287 757.000000,300.762573 757.000000,331.878296 
	C809.019043,331.878296 860.736023,331.878296 912.725342,331.878296 
	C912.725342,348.418091 912.725342,364.473633 912.725342,380.765015 
	C842.297424,380.765015 772.037170,380.765015 701.388306,380.765015 
	C701.388306,300.822449 701.388306,220.779297 701.388306,140.367859 
	C719.560547,140.367859 737.950195,140.367859 757.000000,140.367859 
	C757.000000,173.000443 757.000000,205.750229 757.000000,239.000000 
z"/>
<path fill="#00AAA1" opacity="1.000000" stroke="none" 
	d="
M1525.451294,364.648590 
	C1525.620728,366.913147 1525.790161,369.177704 1525.423584,371.780640 
	C1523.272095,372.784607 1521.656738,373.450195 1520.041260,374.115784 
	C1518.916870,376.279694 1517.792603,378.443634 1516.592651,380.753235 
	C1508.033203,382.976776 1511.945801,372.747131 1506.081055,370.857971 
	C1505.508057,373.850525 1504.930786,376.866119 1504.353516,379.881714 
	C1504.084106,379.876251 1503.814819,379.870819 1503.545410,379.865356 
	C1503.545410,374.774933 1503.545410,369.684509 1503.545410,364.544708 
	C1507.679443,363.996460 1510.123779,366.454987 1512.489746,374.017700 
	C1513.383179,373.679718 1514.263672,373.346619 1515.867432,372.952576 
	C1518.393677,369.649963 1520.196777,366.408295 1522.000000,363.166626 
	C1522.753296,363.119354 1523.506470,363.072052 1524.702148,363.478699 
	C1525.246826,364.171326 1525.349121,364.409973 1525.451294,364.648590 
z"/>
<path fill="#00AAA1" opacity="1.000000" stroke="none" 
	d="
M1488.000000,376.819519 
	C1488.000000,373.395996 1488.000000,370.440399 1488.000000,367.549744 
	C1481.283936,366.565369 1481.283936,366.565369 1481.481689,363.191681 
	C1487.072388,363.191681 1492.677490,363.191681 1498.278442,363.191681 
	C1498.935669,366.754974 1498.935669,366.754974 1492.120605,367.300842 
	C1492.120605,371.653290 1492.120605,376.062897 1492.120605,380.299652 
	C1488.106201,382.086090 1487.844604,379.926819 1488.000000,376.819519 
z"/>
<path fill="#00AAA1" opacity="1.000000" stroke="none" 
	d="
M1520.458496,374.086548 
	C1521.656738,373.450195 1523.272095,372.784607 1525.351807,372.214417 
	C1525.816162,375.069092 1525.816162,377.828369 1525.816162,380.783783 
	C1524.621338,380.783783 1523.535522,380.783783 1522.645386,380.783783 
	C1522.029785,378.443939 1521.452637,376.250610 1520.458496,374.086548 
z"/>
<path fill="#00AAA1" opacity="1.000000" stroke="none" 
	d="
M1521.633789,363.103455 
	C1520.196777,366.408295 1518.393677,369.649963 1516.237549,372.925110 
	C1517.678833,369.652466 1519.473145,366.346375 1521.633789,363.103455 
z"/>
<path fill="#00AAA1" opacity="1.000000" stroke="none" 
	d="
M1525.677246,364.464294 
	C1525.349121,364.409973 1525.246826,364.171326 1525.074463,363.549652 
	C1525.303833,363.537750 1525.603516,363.908875 1525.677246,364.464294 
z"/>
<path fill="#FFFFFF" opacity="1.000000" stroke="none" 
	d="
M1031.159180,189.030914 
	C1046.037964,185.123734 1060.530518,183.132797 1075.693115,184.753113 
	C1088.185303,186.088074 1100.309082,188.334030 1111.275391,194.203873 
	C1131.302002,204.923538 1143.886719,221.339203 1148.141479,244.166977 
	C1151.396851,261.631836 1149.792358,278.430817 1142.650757,294.390289 
	C1136.778564,307.512878 1127.082031,317.868439 1114.353149,324.857574 
	C1100.680298,332.364990 1085.941895,335.565582 1070.282471,336.183563 
	C1052.182739,336.897888 1035.026978,334.468842 1018.709839,326.344879 
	C998.848145,316.456146 986.937073,300.498444 982.026001,279.122162 
	C977.745117,260.489136 979.429138,242.194016 987.654785,225.049667 
	C996.011108,207.633224 1010.245911,196.285080 1028.494995,189.995255 
	C1029.262207,189.730820 1029.998779,189.377548 1031.159180,189.030914 
z"/>
<path fill="#FFFFFF" opacity="1.000000" stroke="none" 
	d="
M1311.000488,183.000000 
	C1328.661011,183.000000 1345.836060,182.583923 1362.975952,183.180588 
	C1371.191772,183.466568 1379.618652,184.775635 1387.454956,187.213150 
	C1399.234375,190.877228 1406.479126,200.534332 1406.934082,212.725281 
	C1407.469971,227.086899 1401.016968,237.623657 1388.614746,241.931168 
	C1382.418091,244.083435 1375.703003,245.708496 1369.192261,245.820694 
	C1343.716675,246.259598 1318.229004,246.000000 1292.373047,246.000000 
	C1292.373047,225.117661 1292.373047,204.396179 1292.373047,183.000000 
	C1298.311768,183.000000 1304.406128,183.000000 1311.000488,183.000000 
z"/>
<path fill="#FFFFFF" opacity="1.000000" stroke="none" 
	d="
M508.685059,226.747131 
	C515.157959,212.684814 521.392151,198.929077 528.207458,183.891251 
	C543.524109,217.819534 558.478149,250.944595 573.706970,284.678345 
	C542.967407,284.678345 513.131714,284.678345 482.730560,284.678345 
	C487.189301,274.752106 491.515930,265.168640 495.800964,255.566620 
	C500.037994,246.072083 504.232941,236.558777 508.685059,226.747131 
z"/>
</svg>