<svg version="1.1" id="Layer_1" xmlns="http://www.w3.org/2000/svg" xmlns:xlink="http://www.w3.org/1999/xlink" x="0px" y="0px"
	 width="100%" viewBox="0 0 300 300" enable-background="new 0 0 300 300" xml:space="preserve">
<path fill="#FFFFFF" opacity="1.000000" stroke="none" 
	d="
M164.000000,301.000000 
	C109.333344,301.000000 55.166687,301.000000 1.000022,301.000000 
	C1.000015,201.000031 1.000015,101.000053 1.000007,1.000062 
	C100.999962,1.000041 200.999924,1.000041 300.999908,1.000021 
	C300.999939,100.999939 300.999939,200.999878 300.999969,300.999908 
	C255.500000,301.000000 210.000000,301.000000 164.000000,301.000000 
M202.613846,41.910030 
	C187.154724,37.328152 171.741974,32.577858 156.199234,28.299763 
	C152.903214,27.392544 148.905304,27.414362 145.616440,28.355648 
	C116.212448,36.771194 86.949326,45.682510 57.506065,53.954285 
	C51.603172,55.612640 49.568356,58.325661 48.920025,64.222969 
	C45.046585,99.456345 40.839996,134.654037 36.507942,169.834488 
	C36.103382,173.119919 36.836098,174.963806 39.208561,177.040192 
	C66.646996,201.054581 93.996689,225.170364 121.368149,249.261261 
	C131.205215,257.919312 141.037430,266.582855 151.021347,275.375580 
	C188.961166,241.957794 226.569519,208.860840 264.075531,175.648331 
	C265.134705,174.710419 265.645935,172.484680 265.490601,170.952942 
	C264.483459,161.020325 263.226929,151.112854 262.039978,141.198593 
	C258.815582,114.266083 255.521774,87.341530 252.441803,60.392529 
	C252.080414,57.230438 250.872833,55.931507 247.919601,55.091877 
	C233.049316,50.864082 218.240311,46.420700 202.613846,41.910030 
z"/>
<path fill="#01AAA1" opacity="1.000000" stroke="none" 
	d="
M203.011826,41.981514 
	C218.240311,46.420700 233.049316,50.864082 247.919601,55.091877 
	C250.872833,55.931507 252.080414,57.230438 252.441803,60.392529 
	C255.521774,87.341530 258.815582,114.266083 262.039978,141.198593 
	C263.226929,151.112854 264.483459,161.020325 265.490601,170.952942 
	C265.645935,172.484680 265.134705,174.710419 264.075531,175.648331 
	C226.569519,208.860840 188.961166,241.957794 151.021347,275.375580 
	C141.037430,266.582855 131.205215,257.919312 121.368149,249.261261 
	C93.996689,225.170364 66.646996,201.054581 39.208561,177.040192 
	C36.836098,174.963806 36.103382,173.119919 36.507942,169.834488 
	C40.839996,134.654037 45.046585,99.456345 48.920025,64.222969 
	C49.568356,58.325661 51.603172,55.612640 57.506065,53.954285 
	C86.949326,45.682510 116.212448,36.771194 145.616440,28.355648 
	C148.905304,27.414362 152.903214,27.392544 156.199234,28.299763 
	C171.741974,32.577858 187.154724,37.328152 203.011826,41.981514 
M143.090958,118.352753 
	C135.565475,101.867844 128.067642,85.370140 120.463371,68.921654 
	C119.837357,67.567528 118.533310,65.579498 117.468094,65.530121 
	C110.752541,65.218834 104.015442,65.372391 96.538177,65.372391 
	C110.829468,95.494301 124.682129,124.759697 138.695343,153.948013 
	C139.192032,154.982544 141.259995,155.736511 142.630096,155.793564 
	C147.785553,156.008255 152.971786,155.629517 158.113876,155.968307 
	C161.527374,156.193222 163.052643,154.865967 164.434097,151.902985 
	C173.214798,133.069748 182.202423,114.333031 191.110291,95.559021 
	C195.778244,85.720947 200.422699,75.871727 205.401413,65.343140 
	C198.753983,65.343140 192.961151,65.531761 187.189163,65.266434 
	C184.138962,65.126213 182.775192,66.356178 181.677155,68.995499 
	C179.379196,74.518982 176.760056,79.908524 174.287460,85.359718 
	C166.761673,101.951378 159.242859,118.546204 151.312057,136.042679 
	C148.424576,129.811981 145.925888,124.420227 143.090958,118.352753 
M113.333824,198.727432 
	C113.906303,194.185410 113.535225,189.248459 115.238266,185.179657 
	C119.399101,175.238876 133.309311,173.319672 138.795502,181.931549 
	C141.700790,186.492081 144.839371,185.718719 148.773026,185.383774 
	C145.600586,173.650040 136.229492,168.055771 123.686157,170.032913 
	C112.142715,171.852448 104.210526,183.347504 105.114830,196.945801 
	C105.961555,209.678223 115.393883,219.029999 127.602112,219.241028 
	C138.915115,219.436584 147.253754,213.175385 148.409286,203.617645 
	C142.312866,203.056229 142.577179,203.313217 138.519974,207.485840 
	C136.464874,209.599426 133.408463,211.388092 130.539108,211.938263 
	C122.306778,213.516708 116.486458,208.974045 113.333824,198.727432 
M166.989304,194.460312 
	C168.005447,195.310883 168.913040,196.666565 170.059052,196.912811 
	C172.949844,197.534012 176.126282,197.140137 178.865067,198.087418 
	C184.128128,199.907852 185.099014,207.181870 180.837921,210.720749 
	C176.476685,214.342758 168.196426,213.276276 166.157501,208.045837 
	C164.144730,202.882462 160.935272,203.862183 157.219421,204.303375 
	C158.653290,213.028458 163.550400,218.083206 171.275787,219.031158 
	C180.314575,220.140289 187.386078,216.897812 190.208450,210.350006 
	C192.897797,204.110779 190.970795,198.638977 184.230896,193.376480 
	C190.208115,188.217102 191.795471,182.365219 188.360077,176.746567 
	C184.318329,170.136200 177.803375,169.222061 170.854279,169.945908 
	C164.634445,170.593796 160.439560,174.009140 158.427368,179.940002 
	C158.027206,181.119446 158.089645,182.455826 157.912933,183.936310 
	C160.480103,183.936310 162.706375,183.936310 164.812698,183.936310 
	C167.528549,177.023544 172.430908,174.550430 177.982452,177.057297 
	C181.098892,178.464554 182.456833,180.891205 182.091080,184.271957 
	C181.711090,187.784164 179.537445,189.591766 176.214294,189.996536 
	C174.244308,190.236465 172.210648,190.258789 170.234787,190.071335 
	C167.476868,189.809708 166.656052,191.065628 166.989304,194.460312 
z"/>
<path fill="#FAFDFD" opacity="1.000000" stroke="none" 
	d="
M143.259064,118.690613 
	C145.925888,124.420227 148.424576,129.811981 151.312057,136.042679 
	C159.242859,118.546204 166.761673,101.951378 174.287460,85.359718 
	C176.760056,79.908524 179.379196,74.518982 181.677155,68.995499 
	C182.775192,66.356178 184.138962,65.126213 187.189163,65.266434 
	C192.961151,65.531761 198.753983,65.343140 205.401413,65.343140 
	C200.422699,75.871727 195.778244,85.720947 191.110291,95.559021 
	C182.202423,114.333031 173.214798,133.069748 164.434097,151.902985 
	C163.052643,154.865967 161.527374,156.193222 158.113876,155.968307 
	C152.971786,155.629517 147.785553,156.008255 142.630096,155.793564 
	C141.259995,155.736511 139.192032,154.982544 138.695343,153.948013 
	C124.682129,124.759697 110.829468,95.494301 96.538177,65.372391 
	C104.015442,65.372391 110.752541,65.218834 117.468094,65.530121 
	C118.533310,65.579498 119.837357,67.567528 120.463371,68.921654 
	C128.067642,85.370140 135.565475,101.867844 143.259064,118.690613 
z"/>
<path fill="#F4FBFA" opacity="1.000000" stroke="none" 
	d="
M113.453293,199.124390 
	C116.486458,208.974045 122.306778,213.516708 130.539108,211.938263 
	C133.408463,211.388092 136.464874,209.599426 138.519974,207.485840 
	C142.577179,203.313217 142.312866,203.056229 148.409286,203.617645 
	C147.253754,213.175385 138.915115,219.436584 127.602112,219.241028 
	C115.393883,219.029999 105.961555,209.678223 105.114830,196.945801 
	C104.210526,183.347504 112.142715,171.852448 123.686157,170.032913 
	C136.229492,168.055771 145.600586,173.650040 148.773026,185.383774 
	C144.839371,185.718719 141.700790,186.492081 138.795502,181.931549 
	C133.309311,173.319672 119.399101,175.238876 115.238266,185.179657 
	C113.535225,189.248459 113.906303,194.185410 113.453293,199.124390 
z"/>
<path fill="#F7FCFC" opacity="1.000000" stroke="none" 
	d="
M166.988342,194.002426 
	C166.656052,191.065628 167.476868,189.809708 170.234787,190.071335 
	C172.210648,190.258789 174.244308,190.236465 176.214294,189.996536 
	C179.537445,189.591766 181.711090,187.784164 182.091080,184.271957 
	C182.456833,180.891205 181.098892,178.464554 177.982452,177.057297 
	C172.430908,174.550430 167.528549,177.023544 164.812698,183.936310 
	C162.706375,183.936310 160.480103,183.936310 157.912933,183.936310 
	C158.089645,182.455826 158.027206,181.119446 158.427368,179.940002 
	C160.439560,174.009140 164.634445,170.593796 170.854279,169.945908 
	C177.803375,169.222061 184.318329,170.136200 188.360077,176.746567 
	C191.795471,182.365219 190.208115,188.217102 184.230896,193.376480 
	C190.970795,198.638977 192.897797,204.110779 190.208450,210.350006 
	C187.386078,216.897812 180.314575,220.140289 171.275787,219.031158 
	C163.550400,218.083206 158.653290,213.028458 157.219421,204.303375 
	C160.935272,203.862183 164.144730,202.882462 166.157501,208.045837 
	C168.196426,213.276276 176.476685,214.342758 180.837921,210.720749 
	C185.099014,207.181870 184.128128,199.907852 178.865067,198.087418 
	C176.126282,197.140137 172.949844,197.534012 170.059052,196.912811 
	C168.913040,196.666565 168.005447,195.310883 166.988342,194.002426 
z"/>
</svg>